<?xml version="1.0" standalone="no"?>
<!DOCTYPE svg PUBLIC "-//W3C//DTD SVG 20010904//EN"
 "http://www.w3.org/TR/2001/REC-SVG-20010904/DTD/svg10.dtd">
<svg version="1.0" xmlns="http://www.w3.org/2000/svg"
 width="350.000000pt" height="350.000000pt" viewBox="0 0 350.000000 350.000000"
 preserveAspectRatio="xMidYMid meet">

<g transform="translate(0.000000,350.000000) scale(0.100000,-0.100000)"
fill="#000000" stroke="none">
<path d="M0 1750 l0 -1750 1750 0 1750 0 0 1750 0 1750 -1750 0 -1750 0 0
-1750z m2963 1351 c70 -1 127 -5 127 -10 0 -5 -14 -24 -31 -42 -18 -19 -125
-144 -238 -279 -113 -135 -334 -396 -490 -580 -156 -184 -294 -349 -307 -366
l-24 -31 156 -329 c86 -181 178 -375 205 -431 27 -57 72 -151 100 -210 28 -60
69 -146 91 -191 22 -46 38 -85 36 -87 -5 -5 -138 -9 -251 -7 l-108 2 -18 43
c-10 23 -58 123 -106 222 -48 99 -105 218 -127 265 -23 47 -71 148 -108 225
-37 77 -75 157 -85 178 -9 20 -20 37 -24 36 -3 0 -51 -54 -106 -121 -55 -66
-155 -186 -222 -266 -68 -79 -123 -149 -123 -154 0 -6 119 -9 326 -7 l325 4
75 -173 c41 -95 86 -189 100 -209 39 -59 36 -61 -86 -55 -47 2 -425 6 -840 8
-415 2 -769 5 -787 7 -31 2 -30 4 155 223 500 590 973 1156 978 1168 3 7 -25
75 -62 152 -190 397 -474 996 -474 1000 0 2 82 3 182 2 l181 -3 81 -170 c45
-94 110 -231 145 -305 159 -337 185 -390 191 -388 7 3 87 97 396 463 270 320
324 386 335 406 10 19 18 20 157 15 81 -2 204 -5 275 -5z"/>
<path d="M2405 2838 c-93 -111 -289 -344 -435 -517 -146 -174 -385 -458 -531
-631 -343 -408 -517 -614 -654 -775 -165 -194 -240 -285 -243 -295 -2 -5 16
-11 40 -15 60 -9 1445 -2 1454 7 4 4 -20 70 -54 145 l-61 138 -380 3 c-222 1
-381 6 -381 11 0 5 15 22 34 38 18 15 132 145 251 288 192 228 511 606 870
1031 135 159 615 733 632 754 10 13 -11 16 -180 18 l-192 3 -170 -203z"/>
</g>
</svg>
