<?xml version="1.0" standalone="no"?>
<!DOCTYPE svg PUBLIC "-//W3C//DTD SVG 20010904//EN"
 "http://www.w3.org/TR/2001/REC-SVG-20010904/DTD/svg10.dtd">
<svg version="1.0" xmlns="http://www.w3.org/2000/svg"
 width="1300.000000pt" height="835.000000pt" viewBox="0 0 1300.000000 835.000000"
 preserveAspectRatio="xMidYMid meet">

<g transform="translate(0.000000,835.000000) scale(0.100000,-0.100000)"
fill="#ffffff" stroke="none">
<path d="M4295 7120 c-101 -39 -154 -117 -164 -240 l-6 -75 -1505 -5 c-828 -3
-1512 -7 -1520 -10 -123 -42 -193 -157 -174 -284 31 -200 499 -701 920 -986
186 -126 241 -161 364 -232 547 -317 1215 -553 1920 -679 30 -6 177 -13 325
-17 268 -8 270 -8 323 -35 75 -39 124 -87 158 -154 l29 -58 3 -347 3 -347 -35
-55 c-54 -85 -188 -240 -320 -371 -129 -129 -268 -255 -355 -323 -19 -15 -39
-32 -45 -38 -28 -26 -200 -156 -286 -215 -119 -82 -230 -149 -340 -206 -50
-25 -95 -56 -110 -75 l-25 -32 -3 -491 c-1 -269 0 -500 3 -512 8 -33 53 -82
96 -103 37 -19 64 -20 900 -20 l863 0 135 64 c290 136 621 226 981 268 150 17
649 17 790 0 423 -52 707 -128 999 -267 l137 -65 859 0 c831 0 861 1 903 20
50 23 63 34 88 80 18 33 19 67 22 505 3 508 2 524 -51 573 -12 11 -74 47 -137
79 -266 136 -608 397 -930 709 -162 158 -321 340 -374 429 l-34 56 2 207 c3
226 6 240 78 372 29 54 131 209 165 251 131 163 344 370 513 499 25 19 47 37
50 40 16 17 234 168 340 236 69 43 366 220 405 241 22 11 58 31 80 43 231 129
544 286 770 386 55 25 109 49 120 54 118 55 394 164 540 212 150 50 182 67
228 117 77 85 81 102 85 333 5 263 -4 327 -57 389 -21 24 -60 55 -87 69 l-49
25 -3770 2 c-3711 2 -3771 2 -3820 -17z"/>
</g>
</svg>
